<?xml version="1.0" encoding="utf-8"?>
<!-- Generator: Adobe Illustrator 22.0.1, SVG Export Plug-In . SVG Version: 6.00 Build 0)  -->
<svg version="1.1" id="GC" xmlns="http://www.w3.org/2000/svg" xmlns:xlink="http://www.w3.org/1999/xlink" x="0px" y="0px"
	 viewBox="0 0 1030.4 203" style="enable-background:new 0 0 1030.4 203;" xml:space="preserve">
<g>
	<g>
		<path d="M425.1,93.1c7.9,0,18.6-3,24.5-11.5l1.4,9.6h14.8v-48h-37v17h16c-1.4,8-8.9,13.3-20.2,13.3c-14.8,0-20.5-12.9-20.5-26.1
			s5.7-26.1,20.5-26.1c9.4,0,16.5,4.6,17.4,12.1h23c-2-22.2-21.6-31.8-39.8-31.8c-26.8,0-43.9,20.3-43.9,45.8
			C381.2,72.8,398.4,93.1,425.1,93.1z M541.8,50.4v-0.2c9.4-3.6,13.8-12.6,13.8-22c0-17.7-15.4-24.7-30.8-24.7h-44.9v87.9h22.9v-32
			h17.4c10.9,0,12.2,9.1,12.8,18c0.4,2.6,0.6,11,2.6,14h22.7c-3.1-3.4-3.3-16-3.7-19.8C554,63.1,551.1,52.8,541.8,50.4z M522.1,41.6
			h-19.2V21.7h18.3c6.4,0,11.6,3,11.6,9.5C532.7,38,529,41.6,522.1,41.6z M591.1,75.5h30.7l5.4,15.8h23.9L618.2,3.4h-23.3L562,91.3
			h23.6L591.1,75.5z M606.4,27.8h0.2l9.7,30.8h-20L606.4,27.8z M711.4,57.6h-0.2L680.5,3.4H657v87.9h21.6V36.5h0.2l30.6,54.8H733
			V3.4h-21.6V57.6z M766.6,91.3h22.9V23.1h26.3V3.4h-75.5v19.7h26.3V91.3z M443,164.9c-0.9,10.2-6.9,16.3-17.8,16.3
			c-14.8,0-20.5-12.9-20.5-26.1c0-13.2,5.7-26.1,20.5-26.1c9.7,0,16.4,4.7,17.8,13.5h23c-0.6-21.2-21.1-33.2-40.2-33.2
			c-26.8,0-43.9,20.3-43.9,45.8s17.1,45.8,43.9,45.8c22.3,0,38.9-13.2,40.2-36H443z M497.9,111.1L465,199h23.6l5.6-15.8h30.7
			l5.4,15.8h23.9l-32.9-87.9H497.9z M499.4,166.3l10-30.8h0.2l9.7,30.8H499.4z M622,158.2V158c9.4-3.6,13.8-12.6,13.8-22
			c0-17.7-15.4-24.7-30.8-24.7h-44.9V199H583v-32h17.4c10.9,0,12.2,9.1,12.8,18c0.4,2.6,0.6,11,2.6,14h22.7
			c-3.1-3.4-3.3-16-3.7-19.8C634.2,170.8,631.2,160.5,622,158.2z M602.3,149.3H583v-19.8h18.3c6.4,0,11.6,3,11.6,9.5
			C612.9,145.7,609.2,149.3,602.3,149.3z M686.5,111.1h-37.9V199h37.9c26.8,0,43.2-15.5,43.2-44.3
			C729.7,127.5,713.5,111.1,686.5,111.1z M682.4,179.3h-10.9v-48.5h10.9c15.8,0,24.3,7.6,24.3,23.8
			C706.7,172.2,699.8,179,682.4,179.3z M780.2,109.3c-27.6,0-43.4,20.3-43.4,45.8s15.8,45.8,43.4,45.8c27.6,0,43.4-20.3,43.4-45.8
			C823.6,129.6,807.8,109.3,780.2,109.3z M780.2,181.2c-14.8,0-20.5-12.9-20.5-26.1c0-13.2,5.7-26.1,20.5-26.1s20.5,12.9,20.5,26.1
			S795,181.2,780.2,181.2z M888.9,165.3h-0.2l-30.6-54.2h-23.6V199h21.6v-54.8h0.2l30.6,54.8h23.6v-87.9h-21.6V165.3z M948.3,179.3
			v-16.7h43.2v-17.7h-43.2v-15.4h47.2v-18.3h-70.2V199h71.4v-19.7H948.3z M100.5,46.9c20.1,0,37.6,10.8,47.1,26.8h60.1
			c9.5-16.1,27.1-26.8,47.1-26.8c20.1,0,37.6,10.8,47.1,26.8h48.5c-12.1-41.4-50.3-71.6-95.6-71.6c-31.1,0-58.9,14.3-77.1,36.6
			c-18.3-22.3-46-36.6-77.1-36.6C45.6,2.2,1,46.7,1,101.6S45.6,201,100.5,201c31.1,0,58.9-14.3,77.1-36.6
			c18.3,22.3,46,36.6,77.1,36.6c45.3,0,83.5-30.2,95.6-71.6H302c-9.5,16.1-27.1,26.8-47.1,26.8c-30.2,0-54.7-24.5-54.7-54.7
			c0-5.9,0.9-11.6,2.7-16.9h-96.3v44.7h41.1c-9.5,16.1-27.1,26.8-47.1,26.8c-30.2,0-54.7-24.5-54.7-54.7S70.3,46.9,100.5,46.9z"/>
	</g>
</g>
<g>
	<path d="M1025.6,197.6c-2.2,2.2-4.9,3.4-8.1,3.4c-3.2,0-5.9-1.1-8.1-3.4c-2.2-2.2-3.3-4.9-3.3-8.1c0-3.1,1.1-5.8,3.4-8.1
		c2.2-2.2,4.9-3.3,8.1-3.3c3.2,0,5.9,1.1,8.1,3.3c2.2,2.2,3.4,4.9,3.4,8.1C1029,192.7,1027.8,195.4,1025.6,197.6z M1010.5,182.5
		c-1.9,1.9-2.9,4.2-2.9,7c0,2.7,1,5.1,2.9,7s4.2,2.9,7,2.9c2.7,0,5.1-1,7-2.9s2.9-4.3,2.9-7s-1-5-2.9-7c-1.9-1.9-4.2-2.9-7-2.9
		C1014.8,179.6,1012.5,180.6,1010.5,182.5z M1017.3,183.2c1.6,0,2.7,0.2,3.4,0.5c1.3,0.5,1.9,1.6,1.9,3.2c0,1.1-0.4,2-1.2,2.5
		c-0.4,0.3-1,0.5-1.8,0.6c1,0.2,1.7,0.6,2.2,1.2s0.7,1.3,0.7,1.9v0.9c0,0.3,0,0.6,0,0.9c0,0.3,0.1,0.6,0.1,0.7l0.1,0.2h-2.1v-0.1
		v-0.1v-0.4v-1c0-1.5-0.4-2.4-1.2-2.9c-0.5-0.3-1.3-0.4-2.5-0.4h-1.7v4.9h-2.2v-12.6L1017.3,183.2L1017.3,183.2z M1019.7,185.2
		c-0.6-0.3-1.5-0.5-2.7-0.5h-1.9v4.6h2c0.9,0,1.6-0.1,2.1-0.3c0.9-0.3,1.3-1,1.3-2C1020.5,186.1,1020.2,185.5,1019.7,185.2z"/>
</g>
</svg>
