<svg xmlns="http://www.w3.org/2000/svg" viewBox="0 0 346.36 80.99"><defs><style>.cls-1{fill:#fff;}.cls-2{fill:#010101;}.cls-3{fill:#030303;}.cls-4{fill:#020202;}.cls-5{fill:#040404;}.cls-6{fill:#040303;}.cls-7{fill:#030404;}.cls-8{fill:#090707;}</style></defs><g id="Layer_2" data-name="Layer 2"><g id="Layer_1-2" data-name="Layer 1"><path class="cls-1" d="M35.77,80.63h38.8c.24-.39.48-.75.7-1.13Q82.13,67.41,89,55.32a1.71,1.71,0,0,0,0-2c-2.79-4.81-5.5-9.67-8.25-14.5Q69.95,19.88,59.16.93A1.6,1.6,0,0,0,57.54,0Q43.72,0,29.93,0a1.57,1.57,0,0,0-1.58,1C25.5,6.21,22.59,11.4,19.71,16.6c-.94,1.69-1.86,3.4-2.88,5.27H45.9l21,36.73c-5.8,0-11.33,0-16.85,0s-11.16-.09-16.73-.11-11.07-.06-16.6,0S5.7,58.11,0,58.37L13.11,80.63H35.77"/><path class="cls-1" d="M224.16,33.18v4.17h10V15.79c.43.57.66.86.87,1.16,4.6,6.5,9.2,13,13.76,19.5a2,2,0,0,0,1.88,1c2.64,0,5.28,0,7.92,0,.38,0,.75-.05,1.07-.08V.1H250V21.59c-.41-.52-.62-.78-.82-1.06-4.61-6.47-9.24-12.94-13.82-19.44A2.24,2.24,0,0,0,233.16,0c-1.76.08-3.53,0-5.29,0h-3.71V33.18"/><path class="cls-1" d="M154.45,22.36H166.6V14.19H152v-6h17.5V.13H141.78V37.38h27.66V29.2H152V22.36h2.45"/><path class="cls-1" d="M203.79,0h-5.72c-2.72,9.1-5.27,18.13-8.24,27.07l-7.94-27H171l12.72,37.58h12.46c4.24-12.52,8.47-25,12.75-37.67h-5.15"/><path class="cls-1" d="M331.17,50.21l0,18.79s-.05.07-.08.1l-.18.07c-.34-.45-.7-.91-1-1.38q-8.73-12-17.43-24a1.73,1.73,0,0,0-1.68-.86c-1.22.06-2.45,0-3.67,0-.76,0-1.52,0-2.26,0V80.34h3.27l3.34,0v-26a.59.59,0,0,1,0-.14.27.27,0,0,1,.08-.1.62.62,0,0,1,.2-.07l19,26.37h3.51l3.55,0V43h-6.59v7.23"/><path class="cls-1" d="M260.21,76.51c2.39-2.6,3-5.78,2.67-9.12a7.81,7.81,0,0,0-4.1-6.54,16.55,16.55,0,0,0-4-1.64c-3-.71-6-1.15-9-1.82A17.87,17.87,0,0,1,242,56.06a3.13,3.13,0,0,1-1.72-2.86c-.14-2.46,1.49-4.19,3.78-4.92a12.08,12.08,0,0,1,7.61.17,6.4,6.4,0,0,1,4.48,5.13c.07.32.12.65.21,1.13l6.06-.69c0-.34,0-.58,0-.82a9.94,9.94,0,0,0-6.66-9.58,22,22,0,0,0-13.63-.68,11.83,11.83,0,0,0-6.45,3.78c-2.3,2.73-2.71,6-2,9.35s3.2,5.44,6.4,6.63,6.26,1.47,9.42,2.06a14.55,14.55,0,0,1,4.69,1.5,3,3,0,0,1,1.67,2.12c.31,2.35-.12,4.64-2.91,6a12.44,12.44,0,0,1-10.24,0,5.2,5.2,0,0,1-3.05-3c-.41-1.07-.74-2.18-1.13-3.36l-2.94.47-3.1.49a10.5,10.5,0,0,0,6.85,10.48,23.17,23.17,0,0,0,12.09,1.22,14,14,0,0,0,8.72-4.15"/><path class="cls-1" d="M203.1,75.48v4.77h6.67V78.73c0-2.89,0-5.78,0-8.66a2.21,2.21,0,0,1,.3-1.38c1.65-1.86,3.38-3.64,5.18-5.56l10.88,17.11h8c-4.78-7.55-9.46-15-14.21-22.48L232.64,43c-.57,0-.9-.09-1.23-.09-2,0-4.11,0-6.16,0a1.94,1.94,0,0,0-1.73.8c-2.89,3.56-5.83,7.06-8.74,10.6-1.62,2-3.2,4-5,6.27V43H203.1v32.5"/><path class="cls-1" d="M129,19.67V8.2h10.78V.09H108v8.2h10.85V37.35H129V19.67"/><path class="cls-1" d="M173.05,78.18A33,33,0,0,0,177,80a22.54,22.54,0,0,0,12.56.17c5.74-1.46,10.06-5.8,10.32-12.45l-6.08-.92c-.35,1.11-.57,2.11-1,3-1.41,3.19-4,4.77-7.37,5.28-5.6.83-10.13-2-11.88-7a20,20,0,0,1-.26-12.62c1.56-5.23,5.31-7.87,10.73-7.6,3.28.16,6.14,1.28,7.85,4.29A27.13,27.13,0,0,1,193.42,56l6-1a3.87,3.87,0,0,0,0-.66c-.08-.57-.15-1.15-.28-1.72a11.75,11.75,0,0,0-8-9.13,25,25,0,0,0-11.68-1,15.58,15.58,0,0,0-5.78,2,15.39,15.39,0,0,0-7.14,9.76A28.67,28.67,0,0,0,166,65.81c.7,5,2.66,9.25,7.06,12.37"/><path class="cls-1" d="M80.13,0,68.24.08a.18.18,0,0,0-.12.08A1.27,1.27,0,0,0,68,.32L80.26,21.84h21.06c-.2-.47-.34-.88-.54-1.25C97.13,14,93.46,7.46,89.84.88A1.45,1.45,0,0,0,88.35,0c-2.64,0-5.29,0-8.22,0"/><path class="cls-1" d="M210.94,9.39v28h10V.1h-10V9.39"/><path class="cls-1" d="M132.61,55.5V43h-6.76V68.71a12.17,12.17,0,0,1-.11,1.91,5.21,5.21,0,0,1-5.42,4.72,5.62,5.62,0,0,1-6.09-4.76c-.15-.7-.22-1.42-.34-2.21l-6.29.51c.1,1,.15,1.83.26,2.64.58,4,2.59,6.92,6.4,8.4a16.27,16.27,0,0,0,9.66.62,10.28,10.28,0,0,0,7.75-6.67,16.23,16.23,0,0,0,.94-5.74V55.5"/><path class="cls-1" d="M346.36,73.78c0-.32-.05-.65-.07-1h-5.35v7.5h5.42Z"/><path class="cls-2" d="M35.63,80.63H13.11L0,58.37c5.7-.26,11.23.21,16.75.13s11.07,0,16.6,0,11.15.09,16.73.11,11.05,0,16.85,0l-21-36.73H16.83c1-1.87,1.94-3.58,2.88-5.27C22.59,11.4,25.5,6.21,28.35,1a1.57,1.57,0,0,1,1.58-1q13.8,0,27.61,0a1.6,1.6,0,0,1,1.62.92q10.75,19,21.57,37.9c2.75,4.83,5.46,9.69,8.25,14.5a1.71,1.71,0,0,1,0,2Q82.11,67.4,75.27,79.5c-.22.38-.46.74-.7,1.13Z"/><path class="cls-2" d="M224.16,33V0h3.71c1.76,0,3.53.05,5.29,0a2.24,2.24,0,0,1,2.16,1.09c4.58,6.5,9.21,13,13.82,19.44.2.28.41.54.82,1.06V.1h9.74V37.37c-.32,0-.69.08-1.07.08-2.64,0-5.28,0-7.92,0a2,2,0,0,1-1.88-1c-4.56-6.52-9.16-13-13.76-19.5-.21-.3-.44-.59-.87-1.16V37.35h-10Z"/><path class="cls-3" d="M154.3,22.36H152V29.2h17.44v8.18H141.78V.13h27.69V8.21H152v6H166.6v8.17Z"/><path class="cls-4" d="M203.94,0h5c-4.28,12.66-8.51,25.15-12.75,37.67H183.73L171,.11h10.88l7.94,27c3-8.94,5.52-18,8.24-27.07Z"/><path class="cls-5" d="M331.17,50.07V43h6.59V80.29l-3.55,0H330.7L311.71,54a.62.62,0,0,0-.2.07.27.27,0,0,0-.08.1.59.59,0,0,0,0,.14v26l-3.34,0H304.8V43c.74,0,1.5,0,2.26,0,1.22,0,2.45,0,3.67,0a1.73,1.73,0,0,1,1.68.86q8.67,12,17.43,24c.34.47.7.93,1,1.38l.18-.07s.08-.07.08-.1C331.15,62.74,331.16,56.48,331.17,50.07Z"/><path class="cls-3" d="M284.68,80.93a23.48,23.48,0,0,1-7.25-.73,16.06,16.06,0,0,1-11.44-11,23.8,23.8,0,0,1,.32-16.18,15.74,15.74,0,0,1,11-10,22.47,22.47,0,0,1,12.82.19,15.44,15.44,0,0,1,10.23,9.53,23.54,23.54,0,0,1,0,17.56c-2.29,5.85-6.74,9.16-12.86,10.3-.91.17-1.84.22-2.9.33M271.55,61.41a42.24,42.24,0,0,0,.65,5,11.17,11.17,0,0,0,4.07,6.61,11.47,11.47,0,0,0,7,2.19c5.58.11,9.63-2.86,11.18-8.06a20.09,20.09,0,0,0,.23-10.52,11.65,11.65,0,0,0-17.76-7,11.2,11.2,0,0,0-4.79,7.42C271.83,58.43,271.73,59.8,271.55,61.41Z"/><path class="cls-6" d="M260.13,76.59a13.87,13.87,0,0,1-8.64,4.07,23.17,23.17,0,0,1-12.09-1.22A10.5,10.5,0,0,1,232.55,69l3.1-.49,2.94-.47c.39,1.18.72,2.29,1.13,3.36a5.2,5.2,0,0,0,3.05,3,12.44,12.44,0,0,0,10.24,0c2.79-1.31,3.22-3.6,2.91-6a3,3,0,0,0-1.67-2.12,14.55,14.55,0,0,0-4.69-1.5c-3.16-.59-6.37-.93-9.42-2.06s-5.62-3.14-6.4-6.63-.34-6.62,2-9.35a11.83,11.83,0,0,1,6.45-3.78,22,22,0,0,1,13.63.68,9.94,9.94,0,0,1,6.66,9.58c0,.24,0,.48,0,.82l-6.06.69c-.09-.48-.14-.81-.21-1.13a6.4,6.4,0,0,0-4.48-5.13,12.08,12.08,0,0,0-7.61-.17c-2.29.73-3.92,2.46-3.78,4.92A3.13,3.13,0,0,0,242,56.06a17.87,17.87,0,0,0,3.69,1.33c3,.67,6,1.11,9,1.82a16.55,16.55,0,0,1,4,1.64,7.81,7.81,0,0,1,4.1,6.54C263.18,70.73,262.6,73.91,260.13,76.59Z"/><path class="cls-5" d="M203.1,75.33V43h6.66V60.56c1.82-2.28,3.4-4.29,5-6.27,2.91-3.54,5.85-7,8.74-10.6a1.94,1.94,0,0,1,1.73-.8c2.05,0,4.11,0,6.16,0,.33,0,.66.05,1.23.09l-12.7,14.76c4.75,7.52,9.43,14.93,14.21,22.48h-8L215.26,63.13c-1.8,1.92-3.53,3.7-5.18,5.56a2.21,2.21,0,0,0-.3,1.38c0,2.88,0,5.77,0,8.66v1.52H203.1Z"/><path class="cls-3" d="M134.33,73.55c3.93-10.35,7.83-20.6,11.74-30.87h8q7.08,18.63,14.29,37.56h-7.17c-1.16-3.09-2.32-6.19-3.49-9.34h-15.3l-3.56,9.36h-7.06c.86-2.24,1.69-4.42,2.56-6.71M146.18,60c-.57,1.73-1.41,3.36-1.83,5.18h11.31a.21.21,0,0,0,.12-.07s0-.09.11-.23l-5.78-15.35C148.75,53.19,147.51,56.5,146.18,60Z"/><path class="cls-7" d="M129,19.81V37.35H118.87V8.29H108V.09h31.75V8.2H129Z"/><path class="cls-3" d="M173,78.11c-4.32-3-6.28-7.32-7-12.3a28.67,28.67,0,0,1,.62-11.59,15.39,15.39,0,0,1,7.14-9.76,15.58,15.58,0,0,1,5.78-2,25,25,0,0,1,11.68,1,11.75,11.75,0,0,1,8,9.13c.13.57.2,1.15.28,1.72a3.87,3.87,0,0,1,0,.66l-6,1a27.13,27.13,0,0,0-1.49-3.75c-1.71-3-4.57-4.13-7.85-4.29-5.42-.27-9.17,2.37-10.73,7.6a20,20,0,0,0,.26,12.62c1.75,5,6.28,7.8,11.88,7,3.37-.51,6-2.09,7.37-5.28.4-.93.62-1.93,1-3l6.08.92c-.26,6.65-4.58,11-10.32,12.45A22.54,22.54,0,0,1,177,80,30,30,0,0,1,173,78.11Z"/><path class="cls-2" d="M80.27,0c2.79,0,5.44,0,8.08,0a1.45,1.45,0,0,1,1.49.87C93.46,7.46,97.13,14,100.78,20.59c.2.37.34.78.54,1.25H80.26L68,.32a1.27,1.27,0,0,1,.11-.16.18.18,0,0,1,.12-.08Z"/><path d="M210.94,9.24V.1h10V37.36h-10Z"/><path class="cls-3" d="M132.61,55.65V68.13a16.23,16.23,0,0,1-.94,5.74,10.28,10.28,0,0,1-7.75,6.67,16.27,16.27,0,0,1-9.66-.62c-3.81-1.48-5.82-4.42-6.4-8.4-.11-.81-.16-1.62-.26-2.64l6.29-.51c.12.79.19,1.51.34,2.21a5.62,5.62,0,0,0,6.09,4.76,5.21,5.21,0,0,0,5.42-4.72,12.17,12.17,0,0,0,.11-1.91V43h6.76Z"/><path class="cls-8" d="M346.36,73.92v6.35h-5.42v-7.5h5.35C346.31,73.13,346.33,73.46,346.36,73.92Z"/></g></g></svg>